<svg width="750" height="61" viewBox="0 0 750 61" fill="none" xmlns="http://www.w3.org/2000/svg">
<g clip-path="url(#clip0_23_3428)">
<path d="M296.443 37.8452V15.2551H311.58V38.0779H334.474V15.2483H349.645V53.3639H342.056V61H304.138V53.2441H334.426V45.5361H304.042V37.8452H296.443Z" fill="#FEFCFC"/>
<path d="M288.816 22.7133H281.234V30.4007H273.587V38.119H281.169V45.8065H288.823V53.4529H273.686V45.8407H266.021V38.1977H250.785V53.3159H235.795V0.0136719H250.901V30.3802H266.114V22.7475H273.795V15.0737H288.816V22.7133Z" fill="#FEFEFE"/>
<path d="M407.534 53.6206V46.5903H400.488V25.1606H407.504V18.031H436.16V3.65552H450.341V53.6206H407.534ZM414.724 25.2119V46.4945H435.965V25.2051L414.724 25.2119Z" fill="#FEFDFD"/>
<path d="M555.517 18.0652V53.778H548.477V60.911H512.785V53.7233H541.308V46.5629H512.792V39.4231H505.708V25.1742H512.713V18.0652H555.517ZM519.893 39.3375H541.124V25.2084H519.893V39.3375Z" fill="#FEFDFD"/>
<path d="M91.2058 45.5874V15.238H106.323V53.3091H60.8016V45.6764H53.151V15.2552H68.2849V45.5874H91.2058Z" fill="#FEFEFE"/>
<path d="M113.956 53.3022V45.6866H151.925V37.982H121.62V30.3151H113.946V22.6447H121.566V14.9641H159.634V22.6037H129.322V30.2843H159.661V37.9307H167.295V45.6387H159.696V53.3022H113.956Z" fill="#FEFCFC"/>
<path d="M212.983 45.6797C212.983 43.1777 212.983 40.84 212.959 38.492C212.959 38.3072 212.642 38.071 212.42 37.9649C212.196 37.912 211.964 37.905 211.737 37.9444H182.572V30.3356H174.925V22.6037H182.528V14.9675H220.487V22.5694H190.171V30.2774H220.511V37.9478H228.141V45.6216H220.548V53.309H174.939V45.6797H212.983Z" fill="#FEFCFB"/>
<path d="M656.435 39.4196V32.2867H685.003V25.1811H656.483V18.0583H692.138V25.14H699.211V53.7506H656.466V46.5629H649.389V39.4094L656.435 39.4196ZM663.744 46.5047H684.986V39.4641H663.744V46.5047Z" fill="#FEFDFD"/>
<path d="M707.415 53.6274V46.58H721.535V10.7508H714.523V3.69653H735.798V46.5184H750V53.6274H707.415Z" fill="#FEFDFD"/>
<path d="M619.312 3.65894H633.535V17.8393H647.737V24.9997H633.559V53.624H619.37V25.051H605.148V17.8838H619.316L619.312 3.65894Z" fill="#FEFDFD"/>
<path d="M22.8048 22.8605V30.435H15.1714V53.2989H1.14441e-05V15.2346H15.1372V22.6585H22.6785V15.2552H45.5312V22.8605H22.8048Z" fill="#FEFCFC"/>
<path d="M487.474 18.0652V46.6484H501.707V53.7506H459.091V46.5629H473.191V25.1982H466.202V18.0652H487.474Z" fill="#FEFDFD"/>
<path d="M593.217 46.6588H607.405V53.7301H564.823V46.5835H578.95V25.1845H571.968V18.0447H593.217V46.6588Z" fill="#FEFEFE"/>
<path d="M473.283 3.64868H487.416V10.6687H473.283V3.64868Z" fill="#FEFCFB"/>
<path d="M593.176 10.679H579.083V3.66919H593.176V10.679Z" fill="#FEFCFC"/>
</g>
<defs>
<clipPath id="clip0_23_3428">
<rect width="750" height="61" fill="white"/>
</clipPath>
</defs>
</svg>
