<svg width="22" height="22" viewBox="0 0 22 22" fill="none" xmlns="http://www.w3.org/2000/svg">
<path fill-rule="evenodd" clip-rule="evenodd" d="M0 11.0625C0 5.02189 4.89689 0.125 10.9375 0.125C16.9781 0.125 21.875 5.02189 21.875 11.0625C21.875 17.1031 16.9781 22 10.9375 22C4.89689 22 0 17.1031 0 11.0625Z" fill="#E06337"/>
<path d="M15.0104 6.20882L3.8686 10.4409C3.10822 10.7417 3.11262 11.1595 3.72909 11.3458L6.58964 12.2248L13.2081 8.1116C13.5211 7.92404 13.807 8.02494 13.572 8.23044L8.20969 12.9973H8.20844L8.20969 12.9979L8.01237 15.9022C8.30144 15.9022 8.42901 15.7716 8.59114 15.6175L9.98057 14.2866L12.8706 16.3893C13.4035 16.6784 13.7863 16.5299 13.9188 15.9034L15.816 7.09645C16.0102 6.32953 15.5188 5.98227 15.0104 6.20882Z" fill="#FFF6F4"/>
</svg>
