<svg width="22" height="22" viewBox="0 0 22 22" fill="none" xmlns="http://www.w3.org/2000/svg">
<path fill-rule="evenodd" clip-rule="evenodd" d="M0 10.9375C0 4.89689 4.89689 0 10.9375 0C16.9781 0 21.875 4.89689 21.875 10.9375C21.875 16.9781 16.9781 21.875 10.9375 21.875C4.89689 21.875 0 16.9781 0 10.9375Z" fill="#E06337"/>
<path fill-rule="evenodd" clip-rule="evenodd" d="M11.173 14.9479C11.173 14.9479 11.3895 14.9231 11.5003 14.8002C11.6018 14.6877 11.5983 14.4754 11.5983 14.4754C11.5983 14.4754 11.5848 13.4838 12.0313 13.3374C12.4714 13.1935 13.0364 14.2963 13.636 14.7204C14.089 15.041 14.4328 14.9708 14.4328 14.9708L16.0351 14.9479C16.0351 14.9479 16.873 14.8946 16.4758 14.2152C16.4429 14.1596 16.244 13.7125 15.2847 12.7942C14.2797 11.8329 14.4146 11.9884 15.6244 10.3253C16.3613 9.31262 16.6559 8.69435 16.5638 8.42998C16.4763 8.1771 15.9342 8.24425 15.9342 8.24425L14.1306 8.25575C14.1306 8.25575 13.9969 8.23699 13.8977 8.29809C13.8009 8.35799 13.7381 8.49773 13.7381 8.49773C13.7381 8.49773 13.453 9.28116 13.0722 9.94783C12.269 11.3538 11.948 11.4282 11.8166 11.3411C11.5109 11.1372 11.5872 10.5232 11.5872 10.087C11.5872 8.72399 11.7878 8.15593 11.197 8.00892C11.001 7.95992 10.8567 7.92786 10.3551 7.92241C9.71142 7.91576 9.16695 7.92483 8.85833 8.08031C8.65298 8.18376 8.49456 8.41485 8.59137 8.42816C8.71048 8.4445 8.98037 8.50318 9.12353 8.70403C9.30835 8.96355 9.30189 9.54553 9.30189 9.54553C9.30189 9.54553 9.40809 11.1499 9.05371 11.3489C8.8108 11.4856 8.47755 11.2068 7.76116 9.93089C7.39446 9.27753 7.11752 8.5552 7.11752 8.5552C7.11752 8.5552 7.06413 8.4203 6.96849 8.3477C6.85291 8.25998 6.69156 8.23276 6.69156 8.23276L4.97774 8.24425C4.97774 8.24425 4.72017 8.25151 4.62571 8.36706C4.54181 8.4693 4.61926 8.68164 4.61926 8.68164C4.61926 8.68164 5.96109 11.9188 7.4807 13.5504C8.87417 15.0459 10.456 14.9479 10.456 14.9479H11.173Z" fill="#FFF6F4"/>
</svg>
